<svg width="16" height="16" viewBox="0 0 16 16" fill="none" xmlns="http://www.w3.org/2000/svg">
<path d="M14 10.6678V5.33156C13.9998 5.15691 13.9538 4.98535 13.8667 4.83397C13.7796 4.6826 13.6543 4.55668 13.5034 4.46875L8.75344 1.70437C8.52458 1.57114 8.2645 1.50095 7.99969 1.50095C7.73487 1.50095 7.47479 1.57114 7.24594 1.70437L2.49656 4.46875C2.34565 4.55668 2.22041 4.6826 2.13329 4.83397C2.04617 4.98535 2.00021 5.15691 2 5.33156V10.6678C2.0001 10.8426 2.04601 11.0143 2.13313 11.1658C2.22026 11.3172 2.34556 11.4433 2.49656 11.5312L7.24656 14.2956C7.47548 14.4287 7.73554 14.4988 8.00031 14.4988C8.26509 14.4988 8.52514 14.4287 8.75406 14.2956L13.5041 11.5312C13.6549 11.4432 13.7801 11.3171 13.8671 11.1656C13.9542 11.0142 14 10.8425 14 10.6678Z" stroke="#111010" stroke-linecap="round" stroke-linejoin="round"/>
<path d="M2.15625 4.81219L8 8.24969M8 8.24969L13.8438 4.81219M8 8.24969V14.4997" stroke="#111010" stroke-linecap="round" stroke-linejoin="round"/>
<path d="M8 5.25C8.41421 5.25 8.75 5.02614 8.75 4.75C8.75 4.47386 8.41421 4.25 8 4.25C7.58579 4.25 7.25 4.47386 7.25 4.75C7.25 5.02614 7.58579 5.25 8 5.25Z" fill="#111010"/>
<path d="M6.5 10C6.77614 10 7 9.66421 7 9.25C7 8.83579 6.77614 8.5 6.5 8.5C6.22386 8.5 6 8.83579 6 9.25C6 9.66421 6.22386 10 6.5 10Z" fill="#111010"/>
<path d="M3.5 11C3.77614 11 4 10.6642 4 10.25C4 9.83579 3.77614 9.5 3.5 9.5C3.22386 9.5 3 9.83579 3 10.25C3 10.6642 3.22386 11 3.5 11Z" fill="#111010"/>
<path d="M9.5 10C9.77614 10 10 9.66421 10 9.25C10 8.83579 9.77614 8.5 9.5 8.5C9.22386 8.5 9 8.83579 9 9.25C9 9.66421 9.22386 10 9.5 10Z" fill="#111010"/>
<path d="M12.5 8.25C12.7761 8.25 13 7.91421 13 7.5C13 7.08579 12.7761 6.75 12.5 6.75C12.2239 6.75 12 7.08579 12 7.5C12 7.91421 12.2239 8.25 12.5 8.25Z" fill="#111010"/>
<path d="M9.5 12.75C9.77614 12.75 10 12.4142 10 12C10 11.5858 9.77614 11.25 9.5 11.25C9.22386 11.25 9 11.5858 9 12C9 12.4142 9.22386 12.75 9.5 12.75Z" fill="#111010"/>
<path d="M12.5 11C12.7761 11 13 10.6642 13 10.25C13 9.83579 12.7761 9.5 12.5 9.5C12.2239 9.5 12 9.83579 12 10.25C12 10.6642 12.2239 11 12.5 11Z" fill="#111010"/>
</svg>
